<svg id="Icons" height="512" viewBox="0 0 74 74" width="512" xmlns="http://www.w3.org/2000/svg"><path d="m66.264 42.392a1 1 0 0 1 -1-1v-12.013a1.936 1.936 0 0 0 -1.933-1.933h-13.64a1 1 0 0 1 0-2h13.64a3.938 3.938 0 0 1 3.933 3.933v12.013a1 1 0 0 1 -1 1z"/><path d="m39.44 72h-2.97a1 1 0 0 1 0-2h2.97a1 1 0 0 1 0 2z"/><path d="m19.56 72h-7.06a7.849 7.849 0 0 1 -7.84-7.84v-43.44a1 1 0 0 1 2 0v43.44a5.847 5.847 0 0 0 5.84 5.84h7.06a1 1 0 1 1 0 2z"/><path d="m29.47 72h-2.91a1 1 0 0 1 0-2h2.91a1 1 0 0 1 0 2z"/><path d="m63.33 72h-16.89a1 1 0 0 1 0-2h16.89a1.932 1.932 0 0 0 1.93-1.93v-12.99a1 1 0 0 1 2 0v12.99a3.934 3.934 0 0 1 -3.93 3.93z"/><path d="m49.69 27.44h-38.31a6.728 6.728 0 0 1 -6.72-6.72 6.738 6.738 0 0 1 6.72-6.72h6.06a1 1 0 0 1 0 2h-6.06a4.736 4.736 0 0 0 -4.72 4.72 4.725 4.725 0 0 0 4.72 4.72h37.31v-9.44h-6.13a1 1 0 0 1 0-2h7.13a1 1 0 0 1 1 1v11.44a1 1 0 0 1 -1 1z"/><path d="m67.363 56.077h-14.784a7.843 7.843 0 1 1 0-15.685h14.784a1.98 1.98 0 0 1 1.978 1.978v11.73a1.98 1.98 0 0 1 -1.978 1.977zm-.022-13.707-14.762.022a5.843 5.843 0 1 0 0 11.685h14.784z"/><path d="m52.762 51.983a3.749 3.749 0 1 1 3.749-3.749 3.752 3.752 0 0 1 -3.749 3.749zm0-5.5a1.749 1.749 0 1 0 1.749 1.749 1.751 1.751 0 0 0 -1.749-1.747z"/><path d="m36.341 27.44a1 1 0 0 1 -.506-1.863 11.623 11.623 0 0 0 5.745-10 4.4 4.4 0 0 0 -.015-.473 11.574 11.574 0 0 0 -23.126-.062 5.049 5.049 0 0 0 -.019.535 11.623 11.623 0 0 0 5.745 10 1 1 0 0 1 -1.01 1.726 13.631 13.631 0 0 1 -6.735-11.723 6.574 6.574 0 0 1 .026-.687 13.572 13.572 0 0 1 27.113.062 6.157 6.157 0 0 1 .021.625 13.631 13.631 0 0 1 -6.735 11.72 1 1 0 0 1 -.504.14z"/><path d="m31.081 16.662h-4.375a1 1 0 0 1 -1-1v-5.562a1 1 0 0 1 1-1h4.375a3.78 3.78 0 0 1 0 7.559zm-3.375-2h3.375a1.78 1.78 0 0 0 0-3.559h-3.375z"/><path d="m31.081 22.221h-4.375a1 1 0 0 1 -1-1v-5.559a1 1 0 0 1 1-1h4.375a3.78 3.78 0 0 1 0 7.559zm-3.375-2h3.375a1.78 1.78 0 0 0 0-3.559h-3.375z"/><path d="m31.3 11.115a1 1 0 0 1 -1-1v-1.606a1 1 0 0 1 2 0v1.606a1 1 0 0 1 -1 1z"/><path d="m31.3 16.666a.986.986 0 0 1 -1-.984v-.033a1 1 0 0 1 2 0 1.014 1.014 0 0 1 -1 1.017z"/><path d="m31.3 24.176a1 1 0 0 1 -1-1v-1.976a1 1 0 0 1 2 0v1.976a1 1 0 0 1 -1 1z"/><path d="m28.7 24.176a1 1 0 0 1 -1-1v-1.96a1 1 0 0 1 2 0v1.96a1 1 0 0 1 -1 1z"/><path d="m28.7 11.1a1 1 0 0 1 -1-1v-1.591a1 1 0 1 1 2 0v1.591a1 1 0 0 1 -1 1z"/></svg>